<?xml version="1.0" encoding="UTF-8"?>
<svg width="512px" height="512px" viewBox="0 0 512 512" version="1.1" xmlns="http://www.w3.org/2000/svg" xmlns:xlink="http://www.w3.org/1999/xlink">
    <title>512x512@1x</title>
    <g id="512x512" stroke="none" stroke-width="1" fill="none" fill-rule="evenodd">
        <circle id="Oval" fill="#4F46E5" cx="256" cy="256" r="250"></circle>
        <path d="M255.999278,308.303 L285.999278,351.148 L286,446 C286,451.522847 281.522847,456 276,456 L236,456 C230.477153,456 226,451.522847 226,446 L225.999278,351.148 L255.999278,308.303 Z M225.998859,298.933544 L225.999278,351.148 L171.595038,428.846182 C168.427263,433.370233 162.191805,434.469713 157.667754,431.301938 L124.901672,408.35888 C120.37762,405.191105 119.278141,398.955647 122.445916,394.431595 L176.849278,316.733 L225.914083,298.87573 C225.942322,298.895028 225.97058,298.9143 225.998859,298.933544 Z M285.999278,298.844 L335.148278,316.733 L389.554084,394.431595 C392.721859,398.955647 391.62238,405.191105 387.098328,408.35888 L354.332246,431.301938 C349.808195,434.469713 343.572737,433.370233 340.404962,428.846182 L285.999278,351.148 L285.999278,298.844 Z M343.712278,255.999 L444.802202,292.793049 C449.991981,294.681974 452.667852,300.420397 450.778927,305.610176 L437.098121,343.197881 C435.209196,348.38766 429.470773,351.063531 424.280994,349.174606 L335.148278,316.733 L304.848644,273.457221 C305.296074,272.227923 305.698879,270.977188 306.055101,269.706976 L343.712278,255.999 Z M168.286278,256 L204.833403,269.303165 C205.304211,271.035427 205.861483,272.732079 206.500299,274.388201 L176.849278,316.733 L87.7190064,349.174606 C82.5292273,351.063531 76.7908038,348.38766 74.9018787,343.197881 L61.221073,305.610176 C59.3321479,300.420397 62.0080187,294.681974 67.1977978,292.793049 L168.286278,256 Z M286.000166,298.236612 L285.999278,298.844 L285.430324,298.638347 C285.621198,298.505666 285.811149,298.37175 286.000166,298.236612 Z M87.7190064,162.825394 L176.850278,195.266 L206.25481,237.261069 C205.586957,239.063605 205.015241,240.912804 204.54589,242.802438 L168.286278,256 L67.1977978,219.206951 C62.0080187,217.318026 59.3321479,211.579603 61.221073,206.389824 L74.9018787,168.802119 C76.7908038,163.61234 82.5292273,160.936469 87.7190064,162.825394 Z M437.098121,168.802119 L450.778927,206.389824 C452.667852,211.579603 449.991981,217.318026 444.802202,219.206951 L343.712278,255.999 L306.352747,242.401162 C305.987307,240.978275 305.563723,239.578708 305.084677,238.205144 L335.149278,195.266 L424.280994,162.825394 C429.470773,160.936469 435.209196,163.61234 437.098121,168.802119 Z M354.332246,80.6980624 L387.098328,103.64112 C391.62238,106.808895 392.721859,113.044353 389.554084,117.568405 L335.149278,195.266 L286.360383,213.02323 C286.240692,212.936121 286.120619,212.849507 286.000166,212.763388 L285.999278,160.851 L340.404962,83.1538185 C343.572737,78.6297667 349.808195,77.5302872 354.332246,80.6980624 Z M171.595038,83.1538185 L225.999278,160.851 L225.998859,212.066456 C225.654284,212.300954 225.312646,212.539445 224.97401,212.781864 L176.850278,195.266 L122.445916,117.568405 C119.278141,113.044353 120.37762,106.808895 124.901672,103.64112 L157.667754,80.6980624 C162.191805,77.5302872 168.427263,78.6297667 171.595038,83.1538185 Z M276,56 C281.522847,56 286,60.4771525 286,66 L285.999278,160.851 L256.48135,203.008988 C256.159276,203.003084 255.836494,203.00008 255.513027,203.000002 L225.999278,160.851 L226,66 C226,60.4771525 230.477153,56 236,56 L276,56 Z" id="Combined-Shape" fill="#FFFFFF"></path>
    </g>
</svg>